<svg class="animated" id="freepik_stories-surfer" xmlns="http://www.w3.org/2000/svg" viewBox="0 0 500 500" version="1.1" xmlns:xlink="http://www.w3.org/1999/xlink" xmlns:svgjs="http://svgjs.com/svgjs"><style>svg#freepik_stories-surfer:not(.animated) .animable {opacity: 0;}svg#freepik_stories-surfer.animated #freepik--Floor--inject-63 {animation: 1.5s Infinite  linear heartbeat;animation-delay: 0s;}svg#freepik_stories-surfer.animated #freepik--character-2--inject-63 {animation: 1.5s Infinite  linear floating;animation-delay: 0s;}svg#freepik_stories-surfer.animated #freepik--character-1--inject-63 {animation: 1.5s Infinite  linear floating;animation-delay: 0s;}            @keyframes heartbeat {                0% {                    transform: scale(1);                }                10% {                    transform: scale(1.1);                }                30% {                    transform: scale(1);                }                40% {                    transform: scale(1);                }                50% {                    transform: scale(1.1);                }                60% {                    transform: scale(1);                }                100% {                    transform: scale(1);                }            }                    @keyframes floating {                0% {                    opacity: 1;                    transform: translateY(0px);                }                50% {                    transform: translateY(-10px);                }                100% {                    opacity: 1;                    transform: translateY(0px);                }            }        </style><g id="freepik--Floor--inject-63" class="animable" style="transform-origin: 249.533px 335.97px;"><g id="freepik--Beach--inject-63" class="animable" style="transform-origin: 249.533px 335.97px;"><ellipse id="freepik--floor--inject-63" cx="249.53" cy="335.97" rx="233.51" ry="134.82" style="fill: rgb(250, 250, 250); transform-origin: 249.53px 335.97px;" class="animable"></ellipse><g id="elznadza9rgt"><path d="M414.65,431.3c71.24-41.13,86.83-102.23,46.76-152.1,1.9,10.48-2.27,20.89-7.44,27.91-21.73,29.51-58.47,20.39-83.86,20.39-61.84,0-71.54,12.39-90.68,55.22-16,35.73-70,13.11-116.67,15.63-31.66,1.71-36,28.06-51.28,46.38C202.85,483.48,332,479,414.65,431.3Z" style="fill: #40BCFF; opacity: 0.3; transform-origin: 297.263px 374.991px;" class="animable" id="elrjcxbcrl5pg"></path></g><g id="el1mm7ohdj6fv"><path d="M414.65,431.3c67.88-39.19,85.22-96.5,52.05-145,2.64,11.18,3.46,24.27-2.24,32-20.85,28.32-60.11,18.76-84.48,18.76-59.36,0-69.06,11.72-87.05,53s-82.31,16.63-112,15c-31.64-1.73-34.81,29.06-51.09,46.64C219.53,482.71,337.41,475.89,414.65,431.3Z" style="fill: #40BCFF; opacity: 0.5; transform-origin: 306.438px 378.534px;" class="animable" id="elprlqh5q1wnm"></path></g><path d="M414.65,431.3C460.2,405,483,370.53,483,336.06c-11.37,30.74-55,24.5-78.69,24.5-59.36,0-69.06,11.73-87.05,53s-67.18,12.58-112,15c-24.11,1.3-31.69,17.5-41.13,32.91C248,480.45,346.93,470.39,414.65,431.3Z" style="fill: #40BCFF; transform-origin: 323.565px 403.417px;" id="el4lqwn83qaop" class="animable"></path><path d="M459.15,306.62c3.1-4.69,6.13-9.8,6.13-22.32-.36-.52-3.27-4.34-4.69-6.11a38.87,38.87,0,0,1-1.36,14.36c-1.88,6.64-4.61,12.55-9.29,17.61-4.5,4.87-9.87,8.19-17.16,11.47-7.06,3.17-16.44,4.69-24.18,4.9-23.36.62-49.69-3.33-72.21,2.91,15.84-2.68,34.77-1.2,50.81-.4,11.85.6,25.9,2.27,36.38-.14C437.61,325.67,449.78,320.77,459.15,306.62Z" style="fill: rgb(250, 250, 250); transform-origin: 400.835px 304.177px;" id="elgzytsn51187" class="animable"></path><path d="M298.73,347.84c-12.18,15.07-17.93,36.37-29.27,45.65s-32.82,9.28-72.27,6.25c0,0,32.36,5.75,50.77,4.21,14-1.18,21.39-1.05,30-11.3C287.17,381.67,290.61,361.71,298.73,347.84Z" style="fill: rgb(250, 250, 250); transform-origin: 247.96px 376.026px;" id="elt604qktllm" class="animable"></path><path d="M129.08,412.7c-15.76,19.47-12.2,21.1-24.48,29q4.34,2,8.78,3.83c6.73-5.55,11.24-19.19,18.19-28.67s19-17.58,27.23-18.13C158.8,398.71,140.32,398.81,129.08,412.7Z" style="fill: rgb(250, 250, 250); transform-origin: 131.7px 422.129px;" id="eldc5yur3bg7v" class="animable"></path><path d="M160.78,407.94c5.59-3.51,12.51-4.17,19.1-3.88,8.37.36,18.44,2.69,26.89,4.91a163.67,163.67,0,0,0-26-1.12c-7.87.49-15.81,2.44-22.36,6.83-5.27,3.53-8.94,8.36-12.62,13.4a106.78,106.78,0,0,1,5.75-10.51C154.09,413.89,157,410.34,160.78,407.94Z" style="fill: rgb(250, 250, 250); transform-origin: 176.28px 416.04px;" id="elnzxbo5f1pf" class="animable"></path><path d="M266.24,411.75c5.23-1.26,17.56-7.25,22.46-18.36s12.45-28.14,23.43-37.52c0,0-7.25,8.81-13.4,26.08S290.08,409.91,266.24,411.75Z" style="fill: rgb(250, 250, 250); transform-origin: 289.185px 383.81px;" id="elhn4khn73ued" class="animable"></path><path d="M342.57,373.58S352.75,362.09,374,358.5c20.86-3.52,56,5.78,72.16,1.37,0,0-11.75,4.39-37.75,3C376.66,361.25,366.07,360.56,342.57,373.58Z" style="fill: rgb(250, 250, 250); transform-origin: 394.365px 365.633px;" id="el5r55zj2r0rw" class="animable"></path><path d="M193,430.92c8.28-4.69,20.12-5.43,38-3.07s48,10.32,63.74,6.43c0,0-4.81,3.63-23.52,3.18s-42.81-7.59-55.4-8A120.89,120.89,0,0,0,193,430.92Z" style="fill: rgb(250, 250, 250); transform-origin: 243.87px 432.022px;" id="elf8kdweg8jag" class="animable"></path></g></g><g id="freepik--Shadows--inject-63" class="animable" style="transform-origin: 213.055px 281.978px;"><ellipse id="freepik--Shadow--inject-63" cx="155.63" cy="325.52" rx="43.75" ry="25.26" style="fill: rgb(235, 235, 235); transform-origin: 155.63px 325.52px;" class="animable"></ellipse><path id="freepik--shadow--inject-63" d="M66.26,349.54c4.83,2.51,12.19,2.35,24.37-4.69,19.17-11.06,14.14-17.54,14.14-17.54S80.38,306.09,29.7,311.45C35.7,332.56,61.43,347,66.26,349.54Z" style="fill: rgb(235, 235, 235); transform-origin: 67.5329px 330.799px;" class="animable"></path><path id="freepik--shadow--inject-63" d="M211.74,214.61c-13.05,7.53,15.29,31.35,63.13,59s106.38,54.09,119.43,46.56-36.8-39-84.64-66.65S224.79,207.08,211.74,214.61Z" style="fill: rgb(235, 235, 235); transform-origin: 302.486px 267.205px;" class="animable"></path></g><g id="freepik--speech-bubble--inject-63" class="animable" style="transform-origin: 399.082px 99.6691px;"><g id="freepik--speach-bubble--inject-63" class="animable" style="transform-origin: 399.082px 99.6691px;"><g id="freepik--speach-bubble--inject-63" class="animable" style="transform-origin: 399.082px 99.6691px;"><path d="M385.5,92.51V78.92l-11.47-1a.85.85,0,0,0-.48.09l-9.83,5.64a.85.85,0,0,0-.19,1.3L375.7,98.13Z" style="fill: #40BCFF; transform-origin: 374.404px 88.0226px;" id="elfwh21jvsmz" class="animable"></path><path d="M375.7,98.13,363.53,85a.84.84,0,0,1,.69-1.41l11.48,1Z" style="fill: #40BCFF; transform-origin: 369.502px 90.8583px;" id="el2w39k5prbrt" class="animable"></path><path d="M385.5,78.91l-9.8,5.64-11.48-1a.82.82,0,0,0-.39.06c.91-.54,9.3-5.36,9.72-5.59a.83.83,0,0,1,.48-.09Z" style="fill: #40BCFF; transform-origin: 374.665px 81.2373px;" id="elvcvt2fior6" class="animable"></path><g id="elebtg4fdgv5t"><path d="M385.5,78.91l-9.8,5.64-11.48-1a.82.82,0,0,0-.39.06c.91-.54,9.3-5.36,9.72-5.59a.83.83,0,0,1,.48-.09Z" style="fill: rgb(255, 255, 255); opacity: 0.5; transform-origin: 374.665px 81.2373px;" class="animable" id="elpfrgjo8f78"></path></g><g id="freepik--speach-bubble--inject-63" class="animable" style="transform-origin: 405.275px 99.6691px;"><path d="M375.69,64.63a7.55,7.55,0,0,1,3.42-5.92l2.78-1.61a7.56,7.56,0,0,1,6.84,0l42.71,24.7a7.58,7.58,0,0,1,3.42,5.92v47a7.58,7.58,0,0,1-3.42,5.92l-2.79,1.61a7.56,7.56,0,0,1-6.84,0l-42.7-24.7a7.55,7.55,0,0,1-3.42-5.93Z" style="fill: #40BCFF; transform-origin: 405.275px 99.675px;" id="elplo8n9ls34g" class="animable"></path><g id="elfoa1kiogfvl"><path d="M434.79,134.68a7.57,7.57,0,0,1-3.41,5.92l-2.79,1.61a7.64,7.64,0,0,1-6.25.27c1.6.61,2.83-.3,2.83-2.25v-47a7,7,0,0,0-1-3.37l9.62-5.56a7,7,0,0,1,1,3.37Z" style="opacity: 0.2; transform-origin: 428.565px 113.661px;" class="animable" id="elam6xbgdb8x9"></path></g><g id="elw9qlzsahy4r"><path d="M375.74,63.63c.4-1.45,1.72-1.92,3.3-1l42.71,24.71a6.68,6.68,0,0,1,2.41,2.55l9.62-5.55a6.94,6.94,0,0,0-2.41-2.56l-42.69-24.7a7.65,7.65,0,0,0-6.85,0L379,58.68A7.57,7.57,0,0,0,375.74,63.63Z" style="fill: rgb(255, 255, 255); opacity: 0.5; transform-origin: 404.76px 73.0802px;" class="animable" id="elhj1zj7uex6u"></path></g></g></g></g><path d="M379.67,101.15a4.1,4.1,0,0,0,3.41,2.08c1.79-.08,2.44-1.54,4.08-6,1.7-4.69,3.12-7.62,7.21-10s8.76-1.83,13.95,3.91,6.53,13.46,5.73,16.23-4.17,2.28-4.94-4c0,0-.09,1.17-.84.94s-.75-1.69-.75-1.69-.07,1.05-.83.9-1.38-1-1.39-2.84c0,0,0,1.77-1.37,1.3,0,0,.66-1.92-.7-2.94s-3.85-.21-4.61,2.13a14.6,14.6,0,0,0-.54,5s1.5-1.06,2.83,1c1.08,1.69.49,4.5,2,6.62s2.9,2.9,7.11,3.54c6.64,1,10.48,3.95,11.5,9.72a10,10,0,0,0-6.23-5.68c-3.62-1-7.87,0-12.05-2.41s-6.61-7.47-6.61-7.47.94,6.4,5.93,10.27a22.77,22.77,0,0,1-7.18-7.79,18.25,18.25,0,0,1-1.84-9.94,5.39,5.39,0,0,1-5.1,3.93A8.16,8.16,0,0,1,379.67,101.15Z" style="fill: rgb(250, 250, 250); transform-origin: 400.595px 106.477px;" id="elqxu1z8ex80k" class="animable"></path><path d="M392.8,89.28a9.93,9.93,0,0,1,6.54-2.59,9.74,9.74,0,0,1,5.05,1.81,21.77,21.77,0,0,1,6.36,7.18c2.45,4.48,3,8.8,2.66,10.78-.12.72-.4,1.29-.94,1.43-.77,0-1.4-.63-1.87-1.84-.9-2.32-.78-3.93-1.56-6.26.07,2.15,0,3.47-.62,3.18-.32-.15-.3-.65-.51-2.09a10.43,10.43,0,0,0-.73-2.6c.48,2.54.24,4.32-.52,4s-.7-2.11-.85-2.91c-.65-3.38-1.72-4.34-1.72-4.34a8.72,8.72,0,0,1,.73,4.91c0-1.84-1.33-4.48-4.9-6.4-4.23-2.28-8.28.91-10.16,5.26-1.78,4.14-3.49,5-5.38,4.76,2-.68,2.78-4.23,3.93-7.12A18.37,18.37,0,0,1,392.8,89.28Z" style="fill: #40BCFF; transform-origin: 398.941px 97.29px;" id="el3c21j9x24no" class="animable"></path><g id="elk82yhmig5u"><path d="M392.8,89.28a9.93,9.93,0,0,1,6.54-2.59,9.74,9.74,0,0,1,5.05,1.81,21.77,21.77,0,0,1,6.36,7.18c2.45,4.48,3,8.8,2.66,10.78-.12.72-.4,1.29-.94,1.43-.77,0-1.4-.63-1.87-1.84-.9-2.32-.78-3.93-1.56-6.26.07,2.15,0,3.47-.62,3.18-.32-.15-.3-.65-.51-2.09a10.43,10.43,0,0,0-.73-2.6c.48,2.54.24,4.32-.52,4s-.7-2.11-.85-2.91c-.65-3.38-1.72-4.34-1.72-4.34a8.72,8.72,0,0,1,.73,4.91c0-1.84-1.33-4.48-4.9-6.4-4.23-2.28-8.28.91-10.16,5.26-1.78,4.14-3.49,5-5.38,4.76,2-.68,2.78-4.23,3.93-7.12A18.37,18.37,0,0,1,392.8,89.28Z" style="fill: rgb(255, 255, 255); opacity: 0.65; transform-origin: 398.941px 97.29px;" class="animable" id="elzwuu5tzh61j"></path></g></g><g id="freepik--character-2--inject-63" class="animable" style="transform-origin: 348.115px 174.681px;"><polygon points="326.13 107.84 328.8 130.8 340.46 149.33 330.02 150.56 317.35 132.39 315.14 105.55 326.13 107.84" style="fill: rgb(177, 102, 104); transform-origin: 327.8px 128.055px;" id="elrj714ofd5vj" class="animable"></polygon><path d="M314.66,98.9c5.35.3,10.72,1.17,11.77,8.55s2.37,23.35,2.37,23.35-2.47,6.12-13.09,2.31l-4.21-25Z" style="fill: rgb(55, 71, 79); transform-origin: 320.15px 116.63px;" id="eltsknqiij13" class="animable"></path><path d="M465.79,256.78c-.34-7.29-55.15-74.7-135.49-121.08-62.4-36-93.66-28.29-93.66-28.29l-3.92,1.66s-2.32,6.06-2.28,15.76a79.6,79.6,0,0,0,2.28,18.39s31.26,43.83,93.67,79.86c70.48,40.7,121.3,42.52,132.94,37.69.69-.29,3.07-1.32,3.64-1.54C464.78,258.53,465.74,257.68,465.79,256.78Z" style="fill: rgb(69, 90, 100); transform-origin: 348.115px 184.686px;" id="elh6rbqnvaq1" class="animable"></path><path d="M326.39,137.36c-62.41-36-93.67-28.29-93.67-28.29s-2.32,6.06-2.28,15.76L461.87,258.44C461.54,251.14,406.72,183.74,326.39,137.36Z" style="fill: #40BCFF; transform-origin: 346.155px 183.408px;" id="el1pw4zzyfjfmh" class="animable"></path><path d="M326.39,223.08c-62.41-36-93.67-79.86-93.67-79.86a79.6,79.6,0,0,1-2.28-18.39L461.87,258.44C461.54,265.35,406.72,269.47,326.39,223.08Z" style="fill: #40BCFF; transform-origin: 346.155px 193.743px;" id="elobeos2l585q" class="animable"></path><g id="elhj4baq89zzk"><g style="opacity: 0.15; transform-origin: 346.155px 193.743px;" class="animable" id="elzn8u1zmuip9"><path d="M326.39,223.08c-62.41-36-93.67-79.86-93.67-79.86a79.6,79.6,0,0,1-2.28-18.39L461.87,258.44C461.54,265.35,406.72,269.47,326.39,223.08Z" id="elznmqr8s4vqr" class="animable" style="transform-origin: 346.155px 193.743px;"></path></g></g><path d="M391,182.57c-17.43,4.79-58.13-8.08-159.91-66.59a57.57,57.57,0,0,0-.64,8.85L461.87,258.44C461.64,253.33,434.69,218.76,391,182.57Z" style="fill: #40BCFF; transform-origin: 346.16px 187.21px;" id="eldftedrrbw3" class="animable"></path><g id="el8jsjflu7jvx"><path d="M391,182.57c-17.43,4.79-58.13-8.08-159.91-66.59a57.57,57.57,0,0,0-.64,8.85L461.87,258.44C461.64,253.33,434.69,218.76,391,182.57Z" style="fill: rgb(255, 255, 255); opacity: 0.7; transform-origin: 346.16px 187.21px;" class="animable" id="elns6j8l0gto"></path></g><path d="M391,252.47c-17.43-24.93-58.13-59-159.91-118a73.65,73.65,0,0,1-.64-9.59L461.87,258.44C461.64,263.28,434.69,266.74,391,252.47Z" style="fill: #40BCFF; transform-origin: 346.16px 193.766px;" id="elqcurjbepzmn" class="animable"></path><g id="elpcywcqnw7nj"><path d="M391,252.47c-17.43-24.93-58.13-59-159.91-118a73.65,73.65,0,0,1-.64-9.59L461.87,258.44C461.64,263.28,434.69,266.74,391,252.47Z" style="fill: rgb(255, 255, 255); opacity: 0.5; transform-origin: 346.16px 193.766px;" class="animable" id="elehqgh3isjk4"></path></g><path d="M230.62,120c-.12,1.48-.19,3.09-.18,4.82s.06,3.4.18,5L461.74,259a1.6,1.6,0,0,0,.13-.51,3.23,3.23,0,0,0-.13-.65Z" style="fill: rgb(255, 255, 255); transform-origin: 346.155px 189.5px;" id="el8l3cndlbuis" class="animable"></path><g id="freepik--Character--inject-63" class="animable" style="transform-origin: 296.165px 174.681px;"><path d="M301.38,148.36c-1.82,15.43-4.53,39.77-7.62,59.13-6.37-2.42-13.34-1.34-17.26-.79-2.64.37-5,.88-7.69,1.25s-6.67,1.31-8.27.66c-2-.82-3.08-2.28-5.39-2.05a6.48,6.48,0,0,0-4.73,2.76c-1.58,2.35-1.42,5.45-2.53,8.05a15.4,15.4,0,0,1-4.26,5.28,15,15,0,0,0-1.51,1.47,9.38,9.38,0,0,0-1.7,7.22c.35,2.15,1.05,4.58,3.09,5.87a3.53,3.53,0,0,0,5.12-1.34c.26-.6.35-1.27.55-1.89a10.53,10.53,0,0,1,1.43-2.69,43.38,43.38,0,0,1,5.58-6.67c2-1.92,4.19-4.22,6.89-4.94,7.85-.37,23.37,1.46,30.84,2.42,8.85,1.15,11.81,1.08,15.39-5.12,3.75-6.5,8.17-17.84,11.26-28.15,3.34-11.2,6.24-23.83,4.2-39C315.37,150.32,309.34,149.45,301.38,148.36Z" style="fill: rgb(177, 102, 104); transform-origin: 282.862px 193.085px;" id="el9mlbs8funlo" class="animable"></path><path d="M351.67,294.64a2.6,2.6,0,0,0-.53-.49c-.18-.14-.33-.21-.49-.33-6.07-4.54-10.34-10.37-14.17-16.82a24.43,24.43,0,0,1-1.45-6.23c-1.26-12.86-3.41-31.33-4.18-43.88-.74-12.17-1.3-13.95-5.13-23-4.24-10.06-9-21.65-13.23-31.35a86.8,86.8,0,0,0,4.83-8.94,16.62,16.62,0,0,0,8.13-3.85c.27-5.67-.89-11-1.27-18.67L292,139.83s-.31.63-.79,1.68h0c-4.36,8.21-8.63,17.1-8.22,27.7.42,10.83,7.78,22.67,14.8,31.09,5.46,6.56,9.22,12.23,15.43,19.47a32.06,32.06,0,0,0-.81,16.32c1.18,5.12,11.47,31.89,12.22,34.94.64,2.58,1.13,5,.16,7.79-.44,1.24-1.32,3-.37,4.69,1.33,2.36,3.72,2.82,5.6,4.82a34.17,34.17,0,0,1,4.46,5.49,10.13,10.13,0,0,0,7,4.6,12.67,12.67,0,0,0,9.94-1.8,1.65,1.65,0,0,0,.62-.8A1.46,1.46,0,0,0,351.67,294.64Z" style="fill: rgb(177, 102, 104); transform-origin: 317.508px 219.293px;" id="el39hb0ecnkls" class="animable"></path><polygon points="295.3 197.24 309.94 215.87 308.67 218.04 295.3 197.24" style="fill: rgb(154, 74, 77); transform-origin: 302.62px 207.64px;" id="el8nuhisiuxh9" class="animable"></polygon><path d="M312.49,172.51c2.38,5.5,5.88,13.61,7.61,17.85l-4.58-16.52c4.6-3.86,5-7.38,6.86-11.58C319.43,164.18,317.09,171.07,312.49,172.51Z" style="fill: rgb(154, 74, 77); transform-origin: 317.435px 176.31px;" id="el91k9kg92i1t" class="animable"></path><path d="M286,152a43.8,43.8,0,0,1,13.42,2.61c4.16,1.36,10,3.07,13.48,3.77,5.28,1.05,11.17-2.92,12.22-6.18a18.52,18.52,0,0,1,.32,5c-.23.91-2.07,3.56-4,6.3-2.58,3.68-4.73,8.75-9,9,0,0-3.31-8.4-11.47-12.53a41.27,41.27,0,0,0-16.25-4.25A14.74,14.74,0,0,1,286,152Z" style="fill: rgb(55, 71, 79); transform-origin: 305.104px 162.25px;" id="el7wofrzzz7eq" class="animable"></path><path d="M307.76,81.55,304.08,94c-10.23,0-16.56-10-16.56-20.2h0c0-10.28,6.55-18.87,16.83-18.87h3.33c10.28,0,18.61,6.83,18.61,17.11h0C326.29,78.72,318,81.55,307.76,81.55Z" style="fill: rgb(38, 50, 56); transform-origin: 306.905px 74.465px;" id="el7ta8mgly8mt" class="animable"></path><path d="M262.21,89l.07,0c4.36,2.79,10.7,2.88,14.9-.22,3-2.19,4.68-5.69,5.67-9.23s1.36-7.22,2.24-10.79,3.16-6.21,7-6.47c1-.07,2.24-.07,2.67-1s-.17-1.71-.8-2.32a9.1,9.1,0,0,0-6.12-2.5,11.69,11.69,0,0,0-9.37,4.5c-2.67,3.43-3.28,7.9-5.26,11.68-2.28,4.37-6.16,5.7-10.86,5.91a5.08,5.08,0,0,0-3.55,1.07,3.94,3.94,0,0,0-.67,3.61A9.5,9.5,0,0,0,262.21,89Z" style="fill: rgb(38, 50, 56); transform-origin: 276.429px 73.784px;" id="elqqie2gd29t" class="animable"></path><path d="M328.21,62.51a7.45,7.45,0,0,0,1.09-4.28,5,5,0,0,0-2.14-3.76c-1.91-1.22-4.56-.65-6.34.76A5.25,5.25,0,0,0,319,51.8a5.19,5.19,0,0,0-3.7-1.18,11.25,11.25,0,0,0-4.69,1.93,24.73,24.73,0,0,1-8,2.46l3.13,1.23a5.14,5.14,0,0,0-.55,4.48,5.71,5.71,0,0,0,.49.87,21.07,21.07,0,0,0,19.17,9.26,6.11,6.11,0,0,0,3-.83,4.9,4.9,0,0,0,1.31-1.41,5.31,5.31,0,0,0,.92-3.31A3.43,3.43,0,0,0,328.21,62.51Z" style="fill: rgb(38, 50, 56); transform-origin: 316.35px 60.7611px;" id="elrp4566rk4rp" class="animable"></path><path d="M319.63,63.12c2.14,1.27,4.79,6.66,4.53,17.95-.22,9.57-3.32,11.94-4.88,12.62s-4.56.26-7.49-.22v5.74l-12-.27V87.14s-2,2.34-5.2.19-3.34-7.44-1.47-9.34,5.92-1.3,6.67,1.33c0,0,4.66.17,10.86-3.24A17.41,17.41,0,0,0,319.63,63.12Z" style="fill: rgb(177, 102, 104); transform-origin: 308.042px 81.165px;" id="elj9gn1j8njui" class="animable"></path><path d="M312.4,78.67a1.21,1.21,0,0,1-1.14,1.3,1.25,1.25,0,1,1,1.14-1.3Z" style="fill: rgb(38, 50, 56); transform-origin: 311.152px 78.7247px;" id="el0ry7wvza36xp" class="animable"></path><path d="M313.79,86.78l2.8.89a1.44,1.44,0,0,1-1.82,1A1.53,1.53,0,0,1,313.79,86.78Z" style="fill: rgb(154, 74, 77); transform-origin: 315.158px 87.7578px;" id="elhqj75hhkxz8" class="animable"></path><path d="M322.27,75l-2.44-1.69a1.43,1.43,0,0,1,2-.41A1.56,1.56,0,0,1,322.27,75Z" style="fill: rgb(38, 50, 56); transform-origin: 321.166px 73.828px;" id="elb5qc2ao30ak" class="animable"></path><path d="M321.71,77.8a1.21,1.21,0,1,1-1.27-1.2A1.24,1.24,0,0,1,321.71,77.8Z" style="fill: rgb(38, 50, 56); transform-origin: 320.5px 77.8091px;" id="elgcoi58bnnem" class="animable"></path><polygon points="315.83 77.11 316.02 84.35 319.83 83.17 315.83 77.11" style="fill: rgb(154, 74, 77); transform-origin: 317.83px 80.73px;" id="elaokq8ep6s8q" class="animable"></polygon><path d="M311.79,93.47c-3.07-.41-9.41-2.23-10.39-4.73a6.53,6.53,0,0,0,2.22,3.2c1.89,1.62,8.17,3.44,8.17,3.44Z" style="fill: rgb(154, 74, 77); transform-origin: 306.595px 92.06px;" id="el4ni3o17dzgq" class="animable"></path><path d="M328.24,115.06c-4.51-8.66-12.38-15.76-12.38-15.76-2.27-1.52-16-.92-16-.92l-4,.29c-9.72.93-9.3,4-9.76,8a30.92,30.92,0,0,0,.24,12.86c1.41,5.55,5.58,20.3,5.58,20.3,8.13,5.19,27.77,5.68,32.22,1.22V129.33C330.57,126.15,330.45,119.3,328.24,115.06Z" style="fill: rgb(69, 90, 100); transform-origin: 307.574px 121.175px;" id="elg307roepw2j" class="animable"></path><path d="M311.79,95v1.42s-1.71,1.35-5.7,1.15c-4.9-.25-6.32-2.14-6.32-2.14V94.27s-.78-.12-.78.78v3.89a11.33,11.33,0,0,0,7.32,2.36c4.75,0,6.09-1.9,6.09-1.9V95.77S312.53,95.26,311.79,95Z" style="fill: rgb(55, 71, 79); transform-origin: 305.699px 97.7857px;" id="elxcbt3ohlhaf" class="animable"></path><g id="elsnte3nhxxg"><path d="M316,127.93A12.57,12.57,0,0,1,305.11,130c-6.07-1.77-7.41-7-7.12-9,0,0-1.7,8.42,5.86,10.71C313.32,134.53,316,127.93,316,127.93Z" style="opacity: 0.2; transform-origin: 306.913px 126.705px;" class="animable" id="el7uiok7ak6ps"></path></g><path d="M317.48,108.15c1.86,1.11,1.41,2.74-1,3.63a10.22,10.22,0,0,1-7.73-.4c-1.86-1.11-1.41-2.73,1-3.62A10.22,10.22,0,0,1,317.48,108.15Z" style="fill: #40BCFF; transform-origin: 313.115px 109.768px;" id="eltued2hsity" class="animable"></path><g id="elvh9la03cs"><path d="M317.48,108.15c1.86,1.11,1.41,2.74-1,3.63a10.22,10.22,0,0,1-7.73-.4c-1.86-1.11-1.41-2.73,1-3.62A10.22,10.22,0,0,1,317.48,108.15Z" style="opacity: 0.2; transform-origin: 313.115px 109.768px;" class="animable" id="ellaot1p6f98"></path></g><path d="M294,103.24c-.67-1.72-1.45-3.31-3.29-3.34-1,0-3.23.88-5.7,3.38-1.65,1.67-4.94,6.06-11.22,14.6a82.44,82.44,0,0,0-10.7,19.2c-2.1,3.43-.7,24.33-.34,29.37.2,2.79.83,8.25,1.45,11.93,1,6.21,4.41,11.2,8.89,12.3,7.14,1.77,6.46-2.27,4.6-6a27.55,27.55,0,0,1-2.92-7.06,15.78,15.78,0,0,0,2.91,2.24c1.12.57,2.64.56,3-.46s-1.34-1.64-2-2.82a34.74,34.74,0,0,0-3.56-5.68c-.55-.65-1.85-1.81-1.95-3.2-.58-8.13.48-18.94,1.43-26.23,3.64-5.69,11-15.24,14.46-20a18.42,18.42,0,0,0,4.67-6.43A16.79,16.79,0,0,0,294,103.24Z" style="fill: rgb(177, 102, 104); transform-origin: 278.45px 145.505px;" id="elu4b2c3n6h6" class="animable"></path><path d="M291.88,99.3c-2.48,0-3.93.81-6.09,2.77S270.21,120.7,266,130.41a8.14,8.14,0,0,0,4.29,5.81c4,2.31,7.11,1.17,7.11,1.17l11.89-15.21s5.76-5,6.08-11.45S294,100.88,291.88,99.3Z" style="fill: rgb(55, 71, 79); transform-origin: 280.705px 118.486px;" id="el6sepi57m29" class="animable"></path></g></g><g id="freepik--character-1--inject-63" class="animable" style="transform-origin: 134.947px 190.739px;"><g id="freepik--character--inject-63" class="animable" style="transform-origin: 149.917px 209.214px;"><g id="freepik--character--inject-63" class="animable" style="transform-origin: 149.917px 209.214px;"><path d="M213.83,201.54a42.79,42.79,0,0,1-5.79-4,20.81,20.81,0,0,0,4-.17c1.34-.26,2.84-.92,2-2.12a1.22,1.22,0,0,0-.73-.41c-.81-.2-1.64-.24-2.45-.44-2.06-.5-3.76-2-5.74-2.72-.66-.26-1.34-.44-2-.74a20.72,20.72,0,0,1-3.89-2.76c-7.08-6.83-18.92-22.11-18.92-22.11-.52-6.45-1.5-18.41-2.14-23.71-1-8.32-1.67-16.23-13.92-17.16-.53,1.61-.6,5.82-.6,8.2.55,5.16,2.94,34.43,3,35.54.19,2.92,0,6.09,2.07,8.27s12.9,11.46,20.51,18.21c2,1.83,4.87,4.29,7.53,6.55,8.17,6.93,11.45,8.16,16.27,7.53C220.67,208.47,217.58,203.84,213.83,201.54Z" style="fill: rgb(242, 143, 143); transform-origin: 190.697px 167.423px;" id="elffk1dr8u9j" class="animable"></path><path d="M180.37,187.59s2.23-8.19,9.59-9.67l-8.9-11.78s-1.35-15.21-2.28-25c-1-10.38-4.61-17.16-15.1-16,0,0,1.2,42.1,3.45,49.14C168.22,177.7,177,184.64,180.37,187.59Z" style="fill: rgb(55, 71, 79); transform-origin: 176.82px 156.301px;" id="el6edhfl26qpa" class="animable"></path><path d="M190.37,321.56c-.19-1.07-1.39-1.57-2.42-1.92A66.32,66.32,0,0,1,175.27,314c-3.2-1.89-5.74-4.75-6.23-8.55-.58-4.49.73-9,1.29-13.41q1-7.71,1.9-15.43c.89-7.58,2.16-15.34,2.16-23,0-7.27.67-38-.06-58.23-.07-2.11-.27-7.68-.29-9.38.11-12,.07-23.33.07-30,.8-1.16,1.18-4.56.83-8.76-.48-5.86-1.83-13.09-4.69-17.53-2.37-3.69-3.87-4-8.94-4.2a100.62,100.62,0,0,0-15.71.47c-5.33.61-11.3,1.58-11.3,1.58-1.26.32-3.62,3.26-4.92,9.37-2.65,12.41-.4,20,2.93,35.24,0,0,.57,4.83-1,13.22a115.3,115.3,0,0,0-2.24,20.48c0,19.74.33,48,.33,48-.21,2.52-1.92,9.43-2.1,18.51-.23,10.66,1.34,21.31,2.38,31.9.26,2.63.29,5.12.3,7.75a23.1,23.1,0,0,1-.83,7.07c-.64,2-1.44,4.14-.54,6.28a15.09,15.09,0,0,0,1.7,2.72,11.29,11.29,0,0,1,2.23,5c.09.8,0,1.61.17,2.4a7.14,7.14,0,0,0,5.23,5.7,17.69,17.69,0,0,0,7.76.39c2.38-.43,5.48-1.4,5.33-4.26a7.42,7.42,0,0,0-2.25-4.47c-1.17-1.26-2.54-2.33-3.64-3.64a21.39,21.39,0,0,1-1.52-2.15,17.46,17.46,0,0,1-2.22-4.26,26.68,26.68,0,0,1-.93-5.33,55.66,55.66,0,0,1,.4-10.87c1-8.36,2.36-16.67,3.67-25,1.24-7.82,2.59-15.62,3.58-23.48,1.43-11.37,4.91-45.73,4.91-45.73s2.47,38.51,2.47,40.82c0,4.56-1.59,6.4-1.08,19.07.41,10.31,2.91,20.57,2.78,30.86a30.1,30.1,0,0,1-1.79,9.86,12.89,12.89,0,0,0-1,3.46c-.3,4.37,6.2,4.82,9.35,5.06,4.71.37,8.18,4.27,12.91,4.86s9.11.85,12.64-2.67A2.66,2.66,0,0,0,190.37,321.56Z" style="fill: rgb(242, 143, 143); transform-origin: 158.824px 233.621px;" id="elc1ehxmf9h4w" class="animable"></path><path d="M144.74,125.42l-9,.8L128.6,156.9l3.76,16s-.63,4.7-.79,8.4-3.18,11.54-2.75,31.9.44,22.39.44,22.39,2.17,3.92,11.38,4,9.94-3.14,9.94-3.14L153,213.7l1.42,20.89s3.36,2.81,11,1.94,9.36-4.45,9.36-4.45.47-17.59.15-35.2-.7-39.36-.7-39.36a24.75,24.75,0,0,0,1-3.74c.34-2.35.34-3.86-.29-10-1.32-13-5.49-17.12-8.31-18.12s-7.69-.56-7.69-.56Z" style="fill: rgb(69, 90, 100); transform-origin: 152.029px 182.298px;" id="el0bszy9sdhkhh" class="animable"></path><path d="M153,213.7,154.23,201s9.44-1.25,13.82-5.76c0,0-1.8,5.53-11.12,7.92l-2.7,12.52.23,18.89Z" style="fill: rgb(55, 71, 79); transform-origin: 160.525px 214.905px;" id="ely2gphitmny" class="animable"></path><path d="M164.08,138.13c2.27,1.36,1.73,3.34-1.22,4.43s-7.17.88-9.44-.48-1.72-3.34,1.22-4.43S161.81,136.78,164.08,138.13Z" style="fill: #40BCFF; transform-origin: 158.752px 140.107px;" id="elhd70z2xpw8" class="animable"></path><g id="eltf8zsyf2qxo"><path d="M164.08,138.13c2.27,1.36,1.73,3.34-1.22,4.43s-7.17.88-9.44-.48-1.72-3.34,1.22-4.43S161.81,136.78,164.08,138.13Z" style="opacity: 0.2; transform-origin: 158.752px 140.107px;" class="animable" id="el3axnsld87bd"></path></g><path d="M128.77,157.64a62,62,0,0,1,4.81-8.84s-.26,4.45-4.25,11.23Z" style="fill: rgb(38, 50, 56); transform-origin: 131.175px 154.415px;" id="elcvs4ieidg0q" class="animable"></path><path d="M83.14,188c1.88-.53,3.9-1.12,5.6-1.66,6.5-2.09,13.82-4.1,21.1-6.43,3.8-1.22,7.91-2,12.3-10.21,4.84-9,9.18-16.42,11.44-20.89,4.37-8.15,5.43-18.66,3.57-22.7-11.05-.06-14.8,5.53-17,16-1.92,4.11-8.22,14.39-12.89,24.21-7.53,3.19-17.62,8.89-25.17,11.43Z" style="fill: rgb(55, 71, 79); transform-origin: 110.058px 157.055px;" id="elnnn13cjhkmg" class="animable"></path><path d="M145.33,98.52l-1.72,1.88-.88-9.71A4.62,4.62,0,0,0,138.92,92c-1.64,1.67-.73,6.92,1.31,12,0,0,2,9.35,2.79,10.89a4.21,4.21,0,0,0,2.45,2Z" style="fill: #40BCFF; transform-origin: 141.772px 103.773px;" id="elp33u5bpo37" class="animable"></path><g id="eleyfrqk3pdq"><path d="M145.33,98.52l-1.72,1.88-.88-9.71A4.62,4.62,0,0,0,138.92,92c-1.64,1.67-.73,6.92,1.31,12,0,0,2,9.35,2.79,10.89a4.21,4.21,0,0,0,2.45,2Z" style="opacity: 0.4; transform-origin: 141.772px 103.773px;" class="animable" id="elkk8m1jn5lac"></path></g><path d="M145.11,104.53c-.75.44-1.83-1-2.75-2s-4-2.3-5.47.89,1.34,7.52,3.72,8.27c4.11,1.29,4.72-1.34,4.72-1.34l.28,15.34c8.54,2,13.39.81,13.4-.6v-4.84a43.48,43.48,0,0,0,6.19,0c3-.47,4.26-2.56,5.18-5.83,1.47-5.25,2-9.49.78-19.81-1.37-11.32-14.53-11.44-21.64-7S145.11,104.53,145.11,104.53Z" style="fill: rgb(242, 143, 143); transform-origin: 154.16px 105.82px;" id="el59uvbgkbpqr" class="animable"></path><path d="M143.35,84.51a35.75,35.75,0,0,1,7.77-2.34c5.74-1.25,11.59-2.4,16.83-5a3.78,3.78,0,0,1,2.06-.59c1.38.18,2,1.86,2,3.25a11.57,11.57,0,0,1-.5,3.83,2.19,2.19,0,0,1,3.09,0,3.84,3.84,0,0,1,.89,3.23,8.06,8.06,0,0,1-4.63,5.85,18.25,18.25,0,0,1-7.57,1.5,51.67,51.67,0,0,1-10.82-.81,7.44,7.44,0,0,0-2.61-.19,2.38,2.38,0,0,0-2,1.55c-.38,1.43-.78,11.15-2.78,11.19-.37,0-1.78-2.44-2.71-3.31-1.16-1.1-2.32-9.43-2.53-11a.69.69,0,0,0-.16-.32c-1.3-1.83.23-4.92,1.84-5.92A17.35,17.35,0,0,1,143.35,84.51Z" style="fill: #40BCFF; transform-origin: 157.373px 91.2799px;" id="elie29pspylw" class="animable"></path><g id="elbe9wpbkzkm"><path d="M143.35,84.51a35.75,35.75,0,0,1,7.77-2.34c5.74-1.25,11.59-2.4,16.83-5a3.78,3.78,0,0,1,2.06-.59c1.38.18,2,1.86,2,3.25a11.57,11.57,0,0,1-.5,3.83,2.19,2.19,0,0,1,3.09,0,3.84,3.84,0,0,1,.89,3.23,8.06,8.06,0,0,1-4.63,5.85,18.25,18.25,0,0,1-7.57,1.5,51.67,51.67,0,0,1-10.82-.81,7.44,7.44,0,0,0-2.61-.19,2.38,2.38,0,0,0-2,1.55c-.38,1.43-.78,11.15-2.78,11.19-.37,0-1.78-2.44-2.71-3.31-1.16-1.1-2.32-9.43-2.53-11a.69.69,0,0,0-.16-.32c-1.3-1.83.23-4.92,1.84-5.92A17.35,17.35,0,0,1,143.35,84.51Z" style="opacity: 0.4; transform-origin: 157.373px 91.2799px;" class="animable" id="elqxx97ljt7ya"></path></g><path d="M140.49,91.5A2.74,2.74,0,1,1,136.32,88Z" style="fill: #40BCFF; transform-origin: 137.977px 90.3648px;" id="el8qkw0lqy7pn" class="animable"></path><g id="eli0z5tbk6669"><path d="M140.49,91.5A2.74,2.74,0,1,1,136.32,88Z" style="opacity: 0.4; transform-origin: 137.977px 90.3648px;" class="animable" id="eltavw5l03quc"></path></g><path d="M159,120.28s-6.75-.65-9.1-1.9a7.76,7.76,0,0,1-3.26-3.22,10.58,10.58,0,0,0,1.85,3.8c1.72,2.2,10.51,2.83,10.51,2.83Z" style="fill: rgb(177, 102, 104); transform-origin: 152.82px 118.475px;" id="ell4aq6i11zgg" class="animable"></path><path d="M156.93,102.84a1.35,1.35,0,1,1-1.35-1.41A1.37,1.37,0,0,1,156.93,102.84Z" style="fill: rgb(38, 50, 56); transform-origin: 155.581px 102.78px;" id="elichdynnht1i" class="animable"></path><path d="M155.5,97.74l-2.89,1.59a1.72,1.72,0,0,1,.67-2.3A1.62,1.62,0,0,1,155.5,97.74Z" style="fill: rgb(38, 50, 56); transform-origin: 153.955px 98.0834px;" id="ellvdb16okhe" class="animable"></path><path d="M157.54,112.17l3.77,1.42a2,2,0,0,1-2.56,1.25A2.12,2.12,0,0,1,157.54,112.17Z" style="fill: rgb(177, 102, 104); transform-origin: 159.365px 113.562px;" id="elptxnujtmg4l" class="animable"></path><path d="M168.86,98.86l-2.64-2a1.6,1.6,0,0,1,2.29-.35A1.74,1.74,0,0,1,168.86,98.86Z" style="fill: rgb(38, 50, 56); transform-origin: 167.694px 97.5181px;" id="eli4rtpmd44v" class="animable"></path><path d="M168.05,102.46a1.38,1.38,0,0,1-1.35,1.4,1.4,1.4,0,0,1-1.36-1.41,1.36,1.36,0,1,1,2.71,0Z" style="fill: rgb(38, 50, 56); transform-origin: 166.695px 102.417px;" id="elp7eh2u7x5fl" class="animable"></path><polygon points="161.53 101.49 161.97 109.62 166.22 108.17 161.53 101.49" style="fill: rgb(177, 102, 104); transform-origin: 163.875px 105.555px;" id="elx4v47nrxwfc" class="animable"></polygon><path d="M159,122.09V123s-1.64,1.64-7,1.36c-4.9-.27-6.47-2.1-6.47-2.1l0-.86s-.78-.11-.78.79v3.9a14,14,0,0,0,7.33,2.34c6.33.42,7.53-1.89,7.53-1.89v-3.63S159.61,122.18,159,122.09Z" style="fill: rgb(55, 71, 79); transform-origin: 152.18px 124.938px;" id="eloyo1l9agvup" class="animable"></path></g></g><path d="M86.77,32.93a1.56,1.56,0,0,0-1.42-.16c-5.51,3.58-33.2,84.93-33.2,180.72,0,74.41,20,133.15,20,133.15l3.75,2.17s5.74-.54,13.23-4.92a64.93,64.93,0,0,0,13.23-10.35s20-81.8,20-156.21c0-88.76-23.78-137.67-31.65-142.16C90.09,34.82,87.44,33.28,86.77,32.93Z" style="fill: rgb(69, 90, 100); transform-origin: 87.255px 190.739px;" id="elg0pe0qsav1b" class="animable"></path><path d="M56,215.66c0,74.42,20,133.15,20,133.15s5.74-.54,13.23-4.92V34.94C83.66,38.52,56,119.87,56,215.66Z" style="fill: #40BCFF; transform-origin: 72.615px 191.875px;" id="eltslp9p5ul3" class="animable"></path><path d="M122.36,177.33c0,74.41-20,156.21-20,156.21a64.93,64.93,0,0,1-13.23,10.35V34.94C94.66,32.16,122.36,81.53,122.36,177.33Z" style="fill: #40BCFF; transform-origin: 105.745px 189.359px;" id="ely38oct5k3yp" class="animable"></path><g id="elze55b2g4so"><g style="opacity: 0.15; transform-origin: 105.745px 189.359px;" class="animable" id="el5fqrkx70r07"><path d="M122.36,177.33c0,74.41-20,156.21-20,156.21a64.93,64.93,0,0,1-13.23,10.35V34.94C94.66,32.16,122.36,81.53,122.36,177.33Z" id="eli15st7yx93n" class="animable" style="transform-origin: 105.745px 189.359px;"></path></g></g><path d="M58.37,165.71q-.39,4.06-.72,8.19l31.51-62.24v-6.78Z" style="fill: #40BCFF; transform-origin: 73.405px 139.39px;" id="el1rb78isniez" class="animable"></path><path d="M89.16,129.52v-6.78L56.79,186.68c-.14,2.49-.27,5-.37,7.51Z" style="fill: #40BCFF; transform-origin: 72.79px 158.465px;" id="elgx1au4hltpc" class="animable"></path><path d="M61,142.61q-.6,4.48-1.16,9.07l29.3-57.87V87Z" style="fill: #40BCFF; transform-origin: 74.49px 119.34px;" id="elj7vsqqgkf5h" class="animable"></path><g id="elzz30o7uuaz"><g style="opacity: 0.8; transform-origin: 72.79px 140.595px;" class="animable" id="el3v77ux5ia6"><path d="M58.37,165.71q-.39,4.06-.72,8.19l31.51-62.24v-6.78Z" style="fill: rgb(255, 255, 255); transform-origin: 73.405px 139.39px;" id="elf0278uullq" class="animable"></path><path d="M89.16,129.52v-6.78L56.79,186.68c-.14,2.49-.27,5-.37,7.51Z" style="fill: rgb(255, 255, 255); transform-origin: 72.79px 158.465px;" id="elul9ttlif5c" class="animable"></path><path d="M61,142.61q-.6,4.48-1.16,9.07l29.3-57.87V87Z" style="fill: rgb(255, 255, 255); transform-origin: 74.49px 119.34px;" id="elu5sm0l1hwfn" class="animable"></path></g></g><path d="M121.52,149.06,89.24,122.57v6.78l32.65,26.79C121.78,153.74,121.66,151.39,121.52,149.06Z" style="fill: #40BCFF; transform-origin: 105.565px 139.355px;" id="el1li2utowh1u" class="animable"></path><path d="M89.24,86.86v6.78l29.18,23.94c-.37-2.64-.76-5.21-1.17-7.73Z" style="fill: #40BCFF; transform-origin: 103.83px 102.22px;" id="elmi68ju5owzr" class="animable"></path><path d="M89.24,104.72v6.78l31.4,25.76c-.22-2.5-.46-4.95-.71-7.37Z" style="fill: #40BCFF; transform-origin: 104.94px 120.99px;" id="elynhfyfhroz8" class="animable"></path><g id="el3j65y9posgh"><g style="opacity: 0.5; transform-origin: 105.565px 121.5px;" class="animable" id="elvip4skwcr6n"><path d="M121.52,149.06,89.24,122.57v6.78l32.65,26.79C121.78,153.74,121.66,151.39,121.52,149.06Z" style="fill: rgb(255, 255, 255); transform-origin: 105.565px 139.355px;" id="elqw1629y8ri" class="animable"></path><path d="M89.24,86.86v6.78l29.18,23.94c-.37-2.64-.76-5.21-1.17-7.73Z" style="fill: rgb(255, 255, 255); transform-origin: 103.83px 102.22px;" id="el2gmxi8mtmet" class="animable"></path><path d="M89.24,104.72v6.78l31.4,25.76c-.22-2.5-.46-4.95-.71-7.37Z" style="fill: rgb(255, 255, 255); transform-origin: 104.94px 120.99px;" id="elm60o4jsm2" class="animable"></path></g></g><path d="M85.35,345.88c1.2-.55,2.47-1.21,3.81-2s2.61-1.58,3.81-2.41L89.61,34.84a1.1,1.1,0,0,0-.45.1,2.41,2.41,0,0,0-.45.42Z" style="fill: rgb(255, 255, 255); transform-origin: 89.16px 190.36px;" id="elm4sqwzuk8y" class="animable"></path></g><defs>     <filter id="active" height="200%">         <feMorphology in="SourceAlpha" result="DILATED" operator="dilate" radius="2"></feMorphology>                <feFlood flood-color="#32DFEC" flood-opacity="1" result="PINK"></feFlood>        <feComposite in="PINK" in2="DILATED" operator="in" result="OUTLINE"></feComposite>        <feMerge>            <feMergeNode in="OUTLINE"></feMergeNode>            <feMergeNode in="SourceGraphic"></feMergeNode>        </feMerge>    </filter>    <filter id="hover" height="200%">        <feMorphology in="SourceAlpha" result="DILATED" operator="dilate" radius="2"></feMorphology>                <feFlood flood-color="#ff0000" flood-opacity="0.5" result="PINK"></feFlood>        <feComposite in="PINK" in2="DILATED" operator="in" result="OUTLINE"></feComposite>        <feMerge>            <feMergeNode in="OUTLINE"></feMergeNode>            <feMergeNode in="SourceGraphic"></feMergeNode>        </feMerge>            <feColorMatrix type="matrix" values="0   0   0   0   0                0   1   0   0   0                0   0   0   0   0                0   0   0   1   0 "></feColorMatrix>    </filter></defs></svg>